HIERARCHY
ROOT Hips
{
  OFFSET -296.958 88.3729 -247.386
  CHANNELS 6 Xposition Yposition Zposition Zrotation Xrotation Yrotation
  JOINT ToSpine
  {
    OFFSET -0.0105055 1.38907 -7.13956
    CHANNELS 3 Zrotation Xrotation Yrotation
    JOINT Spine
    {
      OFFSET 0.0105055 10 1
      CHANNELS 3 Zrotation Xrotation Yrotation
      JOINT Spine1
      {
        OFFSET 0 12 1.60637
        CHANNELS 3 Zrotation Xrotation Yrotation
        JOINT Neck
        {
          OFFSET 0 27 2.26658
          CHANNELS 3 Zrotation Xrotation Yrotation
          JOINT Head
          {
            OFFSET 0 9 2.12705
            CHANNELS 3 Zrotation Xrotation Yrotation
            End Site
            {
              OFFSET 0 11 2
            }
          }
        }
        JOINT LeftShoulder
        {
          OFFSET 8 19.6109 2.86452
          CHANNELS 3 Zrotation Xrotation Yrotation
          JOINT LeftArm
          {
            OFFSET 12 1 0.681055
            CHANNELS 3 Zrotation Xrotation Yrotation
            JOINT LeftForeArm
            {
              OFFSET 19 0 -1.52608
              CHANNELS 3 Zrotation Xrotation Yrotation
              JOINT LeftHand
              {
                OFFSET 23 0 0
                CHANNELS 3 Zrotation Xrotation Yrotation
                End Site
                {
                  OFFSET 10 0 0
                }
              }
            }
          }
        }
        JOINT RightShoulder
        {
          OFFSET -8 19.6109 2.86452
          CHANNELS 3 Zrotation Xrotation Yrotation
          JOINT RightArm
          {
            OFFSET -12 1 0.681055
            CHANNELS 3 Zrotation Xrotation Yrotation
            JOINT RightForeArm
            {
              OFFSET -19 0 -1.52608
              CHANNELS 3 Zrotation Xrotation Yrotation
              JOINT RightHand
              {
                OFFSET -23 0 0
                CHANNELS 3 Zrotation Xrotation Yrotation
                End Site
                {
                  OFFSET -10 0 0
                }
              }
            }
          }
        }
      }
    }
  }
  JOINT LeftUpLeg
  {
    OFFSET 9 -7.17245 0
    CHANNELS 3 Zrotation Xrotation Yrotation
    JOINT LeftLeg
    {
      OFFSET 0 -44.1113 0
      CHANNELS 3 Zrotation Xrotation Yrotation
      JOINT LeftFoot
      {
        OFFSET 0 -36.1829 0
        CHANNELS 3 Zrotation Xrotation Yrotation
        JOINT LeftToeBase
        {
          OFFSET 0 -4.84184 13
          CHANNELS 3 Zrotation Xrotation Yrotation
          End Site
          {
            OFFSET 0 1 6
          }
        }
      }
    }
  }
  JOINT RightUpLeg
  {
    OFFSET -9 -7.17245 0
    CHANNELS 3 Zrotation Xrotation Yrotation
    JOINT RightLeg
    {
      OFFSET 0 -44.0551 0
      CHANNELS 3 Zrotation Xrotation Yrotation
      JOINT RightFoot
      {
        OFFSET 0 -36.1469 0
        CHANNELS 3 Zrotation Xrotation Yrotation
        JOINT RightToeBase
        {
          OFFSET 0 -4.92256 13
          CHANNELS 3 Zrotation Xrotation Yrotation
          End Site
          {
            OFFSET 0 1 6
          }
        }
      }
    }
  }
}
MOTION
Frames:	12
Frame Time:	0.0333333
-296.382 88.3818 -246.671 -8.22157 5.66641 -143.451 0 0 0 -2.54952 8.15373 -0.323704 -0.875953 1.10677 -0.63259 8.93982 -13.86 4.30258 -4.24007 7.59718 6.78835 -25.0053 2.81496 -5.50226 -42.2335 23.2171 8.71737 29.9412 -4.06692 -97.0196 -21.4236 -0.728409 3.85039 20.8115 3.50831 9.32486 44.8651 -6.87761 -8.05988 -27.2399 -5.82067 101.144 12.5287 -0.193322 -1.69512 1.14931 -21.1362 13.8015 -0.00396272 56.0585 -12.6908 18.136 -17.7212 2.85795 1.05108 -9.85028 -2.55189 -13.1517 -12.4478 -5.96764 1.03988 88.8009 -6.80943 -25.7053 -12.8826 -2.94985 3.85432 -14.4253 -6.17848 
-293.86 88.6251 -243.419 -8.92874 7.23981 -145.047 0 0 0 3.45848 8.15349 2.31052 -8.23357 1.59517 3.66319 10.087 -11.6902 0.800762 -4.65144 6.25596 3.9809 -22.2163 2.53303 -5.34912 -48.0494 20.7904 20.867 27.5785 -6.8132 -102.797 -23.2873 -0.75804 3.6809 19.6352 3.32219 9.19877 42.047 -7.23617 -6.68247 -22.468 -5.80228 103.737 8.03596 -0.0454618 -0.672981 1.82906 -21.6654 15.1917 -0.0282263 54.0303 -11.4077 16.4598 -13.3628 1.93982 1.28598 -10.2661 -3.98231 -13.2259 -3.55827 -2.79642 -1.06325 86.1192 -1.79362 -25.5166 -14.684 -3.3427 3.71211 -13.7863 -5.47567 
-290.548 89.706 -238.972 -8.88962 10.4374 -143.661 0 0 0 10.2832 8.55275 4.54344 -11.8661 2.27565 7.00594 8.42119 -7.18224 -3.11047 -3.6942 4.9257 -0.0394977 -21.6971 2.16021 -4.18192 -47.8285 20.2057 30.7345 21.6719 -8.1599 -109.656 -23.9454 -0.66131 3.10186 12.5872 2.76779 10.4778 41.7997 -7.25223 -8.30985 -20.7523 -5.87207 105.11 3.76935 -0.00484717 -0.132336 2.69726 -20.8874 13.4331 0.147305 48.0557 -11.0124 15.6282 -5.51332 0.734936 1.37616 -10.7761 -4.49953 -11.2569 9.04436 -1.5246 -0.246148 75.969 3.83955 -25.8937 -14.7025 -3.39706 4.06574 -15.348 -5.52077 
-286.572 91.437 -234.342 -8.33522 10.3925 -144.23 0 0 0 15.0989 6.98342 7.35947 -15.4891 2.23167 10.7051 7.79671 -2.2025 -5.96433 -3.09468 4.69058 -2.82362 -21.157 1.86519 -3.25903 -42.7312 20.8132 35.3143 20.2635 -9.7676 -114.68 -22.2667 -0.431875 2.20318 6.83434 2.09002 10.8604 43.9489 -6.37654 -10.2541 -20.6258 -4.76742 102.452 1.26018 0.00698992 0.200483 2.75693 -19.7335 13.1609 -0.647705 34.9682 -12.2238 14.2808 7.85768 -0.888196 1.33592 -13.1263 -3.67337 -9.59704 14.5869 0.568491 -0.0197978 64.0734 9.82659 -27.5556 -15.5107 -3.8215 4.33914 -16.5112 -5.5978 
-281.715 92.9455 -229.181 -6.40765 9.60844 -143.752 0 0 0 19.0287 5.23182 8.25191 -17.9695 1.39472 11.8208 8.40145 0.982128 -7.32636 -3.71066 5.7659 -3.59447 -20.5816 1.81752 -3.2206 -38.7793 20.0056 35.9852 19.0978 -9.73537 -116.03 -21.4821 -0.486486 2.56157 3.62648 1.76289 11.5309 45.3728 -3.90038 -11.055 -18.557 -2.75268 98.1414 -1.00797 -0.0058592 0.253822 4.09884 -19.021 8.94039 -2.86044 18.6071 -13.5012 9.92804 20.5542 -1.88935 1.28444 -12.5925 -2.63479 -6.50799 14.4604 -1.29562 0.182464 54.9108 12.4081 -27.3312 -17.5091 -4.28787 4.06342 -15.2214 -3.49412 
-276.424 93.4191 -223.588 -4.02139 7.95255 -143.261 0 0 0 20.2827 3.71341 7.29441 -19.0522 0.4261 10.5426 9.66902 -1.47795 -6.71165 -5.23093 8.75633 -2.21773 -20.8189 1.93311 -3.56598 -38.861 18.532 33.6184 19.3639 -9.42888 -114.992 -20.2237 -0.433148 2.42975 5.26972 2.01108 11.7504 44.0556 -0.0304206 -11.5596 -15.4778 -1.33769 94.819 -1.83101 -0.0496193 3.17094 6.1535 -23.1231 7.21932 -3.06645 16.8776 -21.1361 8.76057 14.5397 -1.08906 -0.219948 -4.63723 2.40841 -3.41969 9.69992 -4.96424 0.0484595 48.912 6.51341 -29.2492 -12.894 -3.35856 6.05027 -23.454 -3.96504 
-270.333 92.6105 -217.752 -3.00263 6.35034 -141.201 0 0 0 16.2974 5.34106 4.7429 -15.7607 -1.7699 7.37949 7.94398 -7.91386 -3.98582 -2.1849 9.6838 -1.31837 -24.7831 2.66709 -5.07772 -34.5011 18.0344 25.5963 20.2976 -9.3165 -113.639 -19.064 -0.45006 2.67907 8.55684 2.44339 11.663 43.9291 0.0931585 -14.8996 -16.0835 -0.62086 92.1523 -1.70293 -0.0673844 4.42271 7.78942 -30.4767 12.0607 0.199885 31.485 -26.1606 15.1678 8.24934 -1.08798 0.3597 -9.3001 1.61968 -1.19083 2.62159 -6.38644 -0.0842468 47.5217 -1.6928 -33.5303 -11.217 -3.40929 6.05956 -23.9461 -5.61199 
-264.072 90.8132 -211.745 -5.85979 6.58916 -138.874 0 0 0 9.38552 10.4008 1.72025 -11.0749 -2.48394 3.88778 8.14528 -15.2711 -0.737248 -1.36707 12.0744 1.0599 -27.3688 3.37897 -6.57627 -26.9562 17.8566 12.6024 19.7611 -8.62085 -112.648 -18.7469 -0.504866 3.05391 10.8141 2.65191 11.099 46.5569 1.00624 -18.6817 -13.8672 0.910273 86.3179 -0.0426499 -0.000291402 3.6271 7.74616 -33.3312 11.7273 0.245161 52.5036 -19.6305 18.4427 -2.47162 0.39279 0.774441 -12.3507 0.321114 -2.44039 -1.6979 -5.5903 0.036425 51.8795 -2.78726 -34.4532 -16.909 -5.24981 7.31524 -30.8888 -7.5561 
-258.021 89.3561 -205.469 -7.63254 5.99806 -137.109 0 0 0 4.75479 13.5403 -1.35066 -8.13838 -3.81926 0.174779 10.6451 -16.6518 2.50109 -3.29899 11.3186 4.9369 -27.5522 3.44387 -6.70339 -18.1257 15.8677 -2.26999 14.2234 -6.1995 -113.076 -17.8753 -0.492372 3.12103 12.5346 2.84203 10.9188 50.7233 3.24599 -23.7305 -15.8615 3.20575 78.8656 1.08528 0.0312622 3.47988 8.54213 -33.6767 14.2438 0.277181 70.8098 -10.3633 20.4229 -11.9213 2.14372 0.978187 -11.6088 -1.44882 -4.66819 -7.45011 -6.38035 0.00691099 55.7856 -0.499304 -33.9261 -23.0294 -7.12416 5.11642 -21.6102 -10.8824 
-252.735 88.7145 -200.035 -6.51485 6.7862 -137.573 0 0 0 5.66413 12.6879 -3.48253 -8.08817 -3.06658 -1.92539 9.94711 -16.1219 4.86661 -1.84998 10.2686 6.5921 -26.4135 2.89817 -5.36628 -10.8726 11.7668 -17.53 11.9236 -5.01152 -112.474 -18.7576 -0.591247 3.6217 13.3051 2.74016 9.91438 55.613 2.66848 -33.01 -22.4146 4.63907 78.9059 4.02183 0.11775 3.29023 13.6043 -28.7272 18.4707 -1.4178 83.5806 0.222954 21.2074 -16.5291 3.11718 1.20042 -13.0622 -2.60717 -3.50349 -13.8124 -6.90903 -0.0139792 57.2607 2.08452 -35.2152 -21.27 -6.81014 4.79795 -20.0005 -11.1384 
-248.098 88.7579 -195.559 -6.62742 7.48888 -137.911 0 0 0 2.96557 9.59157 -5.58389 -6.40075 0.170776 -4.73901 10.9161 -12.9125 7.46138 -1.99546 7.22739 9.53829 -21.5724 2.57266 -5.74392 -12.3616 5.39215 -23.0187 11.7181 -4.58191 -111.063 -19.5938 -0.248785 1.41463 11.85 2.11902 7.62131 60.6536 2.83257 -40.4873 -24.5446 4.80328 79.6096 7.65418 0.284157 4.2221 15.6347 -18.6521 18.8827 -1.49023 89.1798 -0.00118729 22.365 -12.5482 2.45725 1.25671 -15.5815 -1.97419 -2.23115 -18.4745 -6.50438 -0.0248172 56.7182 1.4474 -35.915 -14.9016 -4.8335 4.62874 -18.871 -10.4628 
-244.238 90.437 -191.164 -9.93862 10.101 -136.866 0 0 0 -1.36049 9.44965 -8.89522 -3.94016 2.42368 -9.0504 12.1007 -5.73808 10.0711 -4.26027 5.18809 13.7146 -14.7254 2.46997 -7.87123 -13.9063 3.52791 -21.6882 6.53203 -2.56825 -111.372 -16.9229 -0.164903 1.11973 9.08017 1.5515 5.82632 64.9654 3.7987 -46.8401 -24.0018 3.17147 82.9173 9.80766 0.48815 5.69734 13.1639 -2.37754 15.0246 1.45867 83.4566 -10.5518 24.6888 -6.14589 1.37874 1.27973 -15.1538 -2.37047 -2.63405 -15.4223 -6.0733 0.0259629 49.6946 3.40978 -34.1408 -6.37427 -1.99626 4.48929 -17.9873 -9.86239 
